<svg width="49" height="24" viewBox="0 0 49 24" fill="none" xmlns="http://www.w3.org/2000/svg">
<g clip-path="url(#clip0_127_12)">
<path d="M0.167969 17.6975L5.09519 10.0306H0.751663C0.714853 9.80976 0.699078 9.56787 0.699078 9.29968C0.699078 9.04202 0.714853 8.80538 0.751663 8.58978H7.78228L7.87168 8.82642L2.90765 16.5091H7.56142C7.59823 16.751 7.61401 17.0034 7.61401 17.2558C7.61401 17.4977 7.59823 17.7291 7.56142 17.9499H0.257363L0.167969 17.6975Z" fill="#4C4C4D"/>
<path d="M14.387 11.7818C14.387 11.0614 14.203 10.5671 13.8401 10.2831C13.4773 10.0044 12.9462 9.86244 12.252 9.86244C11.8261 9.86244 11.4265 9.89399 11.0584 9.96235C10.685 10.0307 10.3274 10.1149 9.96985 10.2253C9.73848 9.82563 9.62279 9.34185 9.62279 8.78445C10.0382 8.65299 10.4904 8.54782 10.99 8.4742C11.4896 8.40058 11.9681 8.36377 12.4308 8.36377C13.6455 8.36377 14.571 8.64247 15.2073 9.19461C15.8383 9.74676 16.1591 10.6354 16.1591 11.8502V17.7081C15.7332 17.8028 15.2178 17.908 14.6079 18.0079C13.9979 18.113 13.3774 18.1604 12.7463 18.1604C12.1521 18.1604 11.6105 18.1078 11.132 17.9974C10.6535 17.8869 10.2433 17.7134 9.90675 17.4662C9.57021 17.2243 9.31254 16.9141 9.12849 16.5355C8.94445 16.1569 8.85505 15.6994 8.85505 15.1683C8.85505 14.6477 8.96022 14.1849 9.17582 13.7905C9.38616 13.3962 9.67538 13.0649 10.0435 12.8072C10.4063 12.5443 10.827 12.3497 11.3055 12.2235C11.7788 12.0973 12.2783 12.0289 12.8042 12.0289C13.1933 12.0289 13.5141 12.0395 13.7612 12.0552C14.0084 12.071 14.2187 12.0973 14.3923 12.1183V11.7818H14.387ZM14.387 13.5539C14.203 13.5276 13.9716 13.5066 13.6929 13.4803C13.4142 13.454 13.1775 13.4435 12.983 13.4435C12.2258 13.4435 11.6526 13.5855 11.2582 13.8642C10.8638 14.1429 10.664 14.5688 10.664 15.142C10.664 15.5048 10.7323 15.794 10.8638 15.9991C10.9953 16.2042 11.1635 16.362 11.3634 16.4724C11.5632 16.5828 11.784 16.6512 12.0312 16.6722C12.2731 16.6985 12.5045 16.709 12.7253 16.709C13.004 16.709 13.2932 16.6932 13.593 16.6617C13.8927 16.6301 14.1556 16.5881 14.387 16.525V13.5539Z" fill="#4C4C4D"/>
<path d="M18.131 8.59018C18.252 8.56389 18.3782 8.54811 18.5044 8.5376C18.6306 8.52708 18.762 8.52182 18.8988 8.52182C19.0197 8.52182 19.1459 8.52708 19.2826 8.5376C19.4141 8.54811 19.5455 8.56915 19.6665 8.59018C19.677 8.61647 19.6928 8.69009 19.7138 8.8163C19.7296 8.9425 19.7506 9.07922 19.7664 9.22646C19.7822 9.3737 19.8032 9.51042 19.819 9.64714C19.8348 9.78386 19.8453 9.868 19.8453 9.90481C19.9662 9.71024 20.1135 9.52094 20.2817 9.33689C20.45 9.15284 20.6551 8.98983 20.8917 8.84259C21.1284 8.69535 21.3965 8.57966 21.6963 8.49553C21.996 8.41139 22.3273 8.36932 22.6901 8.36932C23.237 8.36932 23.7471 8.45872 24.2151 8.64277C24.6831 8.82681 25.0828 9.10551 25.4193 9.48938C25.7558 9.87326 26.0135 10.3623 26.2028 10.9513C26.3921 11.5402 26.4868 12.2396 26.4868 13.0441C26.4868 14.6532 26.0503 15.91 25.1827 16.8145C24.3098 17.7189 23.0793 18.1764 21.4859 18.1764C21.2178 18.1764 20.9443 18.1607 20.6656 18.1239C20.3869 18.087 20.1398 18.0397 19.9347 17.9766V22.2676C19.7874 22.2938 19.6349 22.3096 19.4667 22.3201C19.3037 22.3307 19.1512 22.3359 19.0197 22.3359C18.8882 22.3359 18.7357 22.3307 18.5727 22.3201C18.4097 22.3096 18.2572 22.2886 18.1258 22.2676V8.59018H18.131ZM19.9399 16.4201C20.1713 16.5042 20.4079 16.5673 20.6498 16.6041C20.8917 16.641 21.2072 16.6567 21.6016 16.6567C22.0381 16.6567 22.443 16.5884 22.8058 16.4464C23.1687 16.3044 23.4842 16.0888 23.7471 15.7996C24.01 15.5051 24.2151 15.137 24.3676 14.6953C24.5201 14.2536 24.5937 13.7225 24.5937 13.1178C24.5937 12.1449 24.4149 11.3719 24.0573 10.7988C23.6998 10.2256 23.1108 9.94162 22.2957 9.94162C21.9908 9.94162 21.7015 9.9942 21.4176 10.1046C21.1389 10.2151 20.8865 10.3781 20.6709 10.5989C20.45 10.8198 20.2765 11.0932 20.1398 11.4298C20.003 11.7663 19.9399 12.1607 19.9399 12.6235V16.4201Z" fill="#4C4C4D"/>
<path d="M28.7374 10.0096H27.549C27.5227 9.90967 27.5069 9.79924 27.4964 9.67304C27.4859 9.54683 27.4806 9.42063 27.4806 9.29968C27.4806 9.17874 27.4859 9.05253 27.4964 8.92633C27.5069 8.80012 27.5279 8.68444 27.549 8.58978H30.5095V17.9552C30.3781 17.9815 30.2256 17.9972 30.0625 18.0078C29.8995 18.0183 29.747 18.0235 29.6156 18.0235C29.4946 18.0235 29.3526 18.0183 29.1844 18.0078C29.0214 17.9972 28.8689 17.9762 28.7374 17.9552V10.0096Z" fill="#4C4C4D"/>
<path d="M34.3955 13.7171C34.4218 14.7372 34.6848 15.4892 35.1896 15.9624C35.6944 16.4357 36.4411 16.6723 37.4244 16.6723C38.2868 16.6723 39.1124 16.5198 39.8907 16.2149C39.9906 16.3989 40.0695 16.6198 40.1273 16.8827C40.1904 17.1456 40.222 17.4033 40.2377 17.6609C39.8381 17.8292 39.3964 17.9607 38.9126 18.0448C38.4341 18.1289 37.8977 18.171 37.314 18.171C36.4621 18.171 35.7312 18.0501 35.1212 17.8134C34.5112 17.5768 34.0117 17.2403 33.6173 16.8091C33.2229 16.3779 32.9337 15.8678 32.7496 15.2736C32.5656 14.6846 32.4762 14.0378 32.4762 13.3279C32.4762 12.6338 32.5656 11.987 32.7391 11.3823C32.9126 10.7776 33.1861 10.257 33.5489 9.80999C33.9118 9.36828 34.3745 9.0107 34.9267 8.75303C35.4788 8.49011 36.1361 8.35864 36.8881 8.35864C37.5349 8.35864 38.0975 8.46907 38.5866 8.68993C39.0756 8.91079 39.4805 9.21052 39.8118 9.59439C40.1378 9.97826 40.3902 10.4358 40.5585 10.9616C40.7268 11.4927 40.8162 12.0659 40.8162 12.6864C40.8162 12.8547 40.8109 13.0387 40.7951 13.2228C40.7846 13.4121 40.7689 13.5751 40.7583 13.7065H34.3955V13.7171ZM39.0335 12.3656C39.0335 12.0238 38.9862 11.6978 38.8968 11.3875C38.8074 11.0773 38.6707 10.8091 38.4972 10.5777C38.3184 10.3464 38.0975 10.1623 37.8241 10.0203C37.5506 9.87835 37.2246 9.80999 36.846 9.80999C36.1046 9.80999 35.5366 10.0361 35.137 10.4831C34.7426 10.9353 34.5007 11.5611 34.4166 12.3656H39.0335Z" fill="#4C4C4D"/>
<path d="M42.8144 8.58978C42.9459 8.56349 43.0774 8.54772 43.1983 8.5372C43.3193 8.52668 43.4455 8.52142 43.5822 8.52142C43.7136 8.52142 43.8504 8.52668 43.9818 8.5372C44.1133 8.54772 44.2395 8.56875 44.3447 8.58978C44.3815 8.77383 44.4183 9.01046 44.4551 9.3102C44.4919 9.60993 44.5077 9.86234 44.5077 10.0674C44.7654 9.652 45.1019 9.29442 45.5226 8.98943C45.9433 8.68444 46.4796 8.53194 47.1369 8.53194C47.2368 8.53194 47.3368 8.5372 47.4367 8.54246C47.5418 8.54772 47.626 8.55823 47.6996 8.56875C47.7259 8.67918 47.7417 8.79487 47.7522 8.91581C47.7627 9.03676 47.768 9.16296 47.768 9.29968C47.768 9.44692 47.7574 9.59942 47.7417 9.75717C47.7259 9.91493 47.6996 10.0674 47.6786 10.2147C47.5786 10.1884 47.4787 10.1779 47.3788 10.1779C47.2737 10.1779 47.1948 10.1779 47.1317 10.1779C46.8056 10.1779 46.4901 10.2252 46.1904 10.3146C45.8907 10.404 45.6225 10.567 45.3859 10.7984C45.1492 11.0297 44.9599 11.3452 44.8179 11.7501C44.676 12.1498 44.6076 12.6704 44.6076 13.3014V17.9552C44.4761 17.9815 44.3236 17.9973 44.1606 18.0078C43.9976 18.0183 43.8451 18.0235 43.7136 18.0235C43.5822 18.0235 43.4297 18.0183 43.2667 18.0078C43.1037 17.9973 42.9459 17.9762 42.7987 17.9552V8.58978H42.8144Z" fill="#4C4C4D"/>
<path d="M32.229 3.07908H30.4621L31.7136 1.82755C31.6137 1.69083 31.5033 1.55937 31.3876 1.43842C31.2667 1.31748 31.1405 1.20705 30.9985 1.11239L29.747 2.36392V0.597061C29.584 0.570768 29.4157 0.554993 29.2421 0.554993H29.2369C29.0634 0.554993 28.8951 0.570768 28.7321 0.597061V2.36392L27.4806 1.11239C27.3438 1.21231 27.2124 1.32273 27.0914 1.43842C26.9705 1.55937 26.8653 1.68557 26.7654 1.82755L28.0222 3.07908H26.2553C26.2553 3.07908 26.2132 3.41036 26.2132 3.58389C26.2132 3.75742 26.229 3.92569 26.2553 4.08871H28.0222L26.7707 5.34023C26.9652 5.61367 27.2071 5.85557 27.4858 6.05539L28.7373 4.80387V6.57072C28.9003 6.59702 29.0686 6.61279 29.2421 6.61279H29.2474C29.4209 6.61279 29.5892 6.59702 29.7522 6.57072V4.80387L31.0037 6.05539C31.1405 5.95548 31.2719 5.84505 31.3929 5.72936C31.5138 5.60842 31.6243 5.48221 31.7189 5.34023L30.4674 4.08871H32.2342C32.2605 3.92569 32.2763 3.75742 32.2763 3.58389V3.57863C32.271 3.41036 32.2605 3.24209 32.229 3.07908ZM29.9994 3.58915C29.9994 3.81527 29.9573 4.03086 29.8837 4.23069C29.6839 4.30431 29.4683 4.34638 29.2421 4.34638C29.016 4.34638 28.8004 4.30431 28.6006 4.23069C28.527 4.03086 28.4849 3.81527 28.4849 3.58915V3.58389C28.4849 3.35778 28.527 3.14218 28.6006 2.94235C28.8004 2.86874 29.016 2.82667 29.2421 2.82667C29.4683 2.82667 29.6839 2.86874 29.8837 2.94235C29.9573 3.14218 29.9994 3.35778 29.9994 3.58915Z" fill="#4C4C4D"/>
</g>
<defs>
<clipPath id="clip0_127_12">
<rect width="48" height="24" fill="white" transform="translate(0.166992)"/>
</clipPath>
</defs>
</svg>
