<svg width="50" height="11" viewBox="0 0 50 11" fill="none" xmlns="http://www.w3.org/2000/svg">
<path fill-rule="evenodd" clip-rule="evenodd" d="M40.1876 3.29987C40.3747 3.62268 40.4359 3.98997 40.4561 4.40287L40.4827 4.95322V8.8016L40.5098 9.35252C40.5641 10.2523 41.2277 10.9175 42.1343 10.9741L42.6824 11.0013V4.95322L42.7095 4.40287C42.732 3.99459 42.7927 3.62037 42.9827 3.29525C43.1763 2.96177 43.4542 2.68509 43.7885 2.49299C44.1229 2.30089 44.5019 2.20014 44.8875 2.20084C45.2731 2.20154 45.6517 2.30368 45.9854 2.49699C46.319 2.69031 46.5959 2.96799 46.7883 3.30218C46.9754 3.62499 47.0337 3.99921 47.0563 4.40287L47.0834 4.95148V8.8016L47.1105 9.35252C47.1671 10.2569 47.8255 10.9221 48.735 10.9741L49.283 11.0013V4.40287C49.283 3.23609 48.8197 2.11708 47.9948 1.29189C47.1699 0.466689 46.0511 0.00286713 44.8843 0.00240774C44.2598 0.00174916 43.6424 0.134367 43.0733 0.3914C42.5041 0.648434 41.9964 1.02397 41.584 1.49291C41.1714 1.02415 40.6636 0.64871 40.0945 0.3916C39.5254 0.13449 38.9081 0.00161532 38.2836 0.00183015C37.37 0.00183015 36.5223 0.279025 35.8201 0.757763C35.3916 0.279602 34.4329 0.00183015 33.8826 0.00183015V11.0013L34.4329 10.9741C35.3535 10.9135 36.0187 10.2661 36.0545 9.35252L36.084 8.8016V4.95322L36.1111 4.40287C36.1342 3.98766 36.192 3.62268 36.3796 3.29756C36.5734 2.96428 36.8512 2.68767 37.1853 2.49534C37.5194 2.30301 37.8981 2.20168 38.2836 2.20148C38.6694 2.20157 39.0484 2.30309 39.3826 2.49588C39.7168 2.68866 39.9944 2.96593 40.1876 3.29987ZM2.53364 10.9747L3.08398 11.0013H11.3334L11.3063 10.4526C11.2318 9.54829 10.5913 8.88765 9.6841 8.82874L9.13375 8.8016H4.18468L10.7831 2.20091L10.7559 1.65287C10.7132 0.739283 10.0456 0.0792138 9.13375 0.0289719L8.5834 0.00414005L0.333984 0.00183015L0.361126 0.552177C0.433312 1.44786 1.08299 2.12237 1.98271 2.17434L2.53364 2.20148H7.48271L0.884331 8.80218L0.911473 9.35252C0.965757 10.2592 1.62005 10.9158 2.53364 10.9741V10.9747ZM31.7234 1.61187C32.2342 2.12255 32.6393 2.72886 32.9158 3.39615C33.1922 4.06345 33.3345 4.77867 33.3345 5.50097C33.3345 6.22326 33.1922 6.93848 32.9158 7.60578C32.6393 8.27307 32.2342 8.87938 31.7234 9.39006C30.6914 10.4212 29.2922 11.0004 27.8334 11.0004C26.3746 11.0004 24.9754 10.4212 23.9434 9.39006C21.7958 7.24238 21.7958 3.75955 23.9434 1.61187C24.4538 1.10135 25.0596 0.69636 25.7265 0.42001C26.3933 0.143659 27.1081 0.00136522 27.8299 0.00125255C28.5529 0.000750577 29.269 0.142794 29.937 0.419258C30.6051 0.695722 31.2121 1.10118 31.7234 1.61245V1.61187ZM30.167 3.16935C30.7856 3.78843 31.1331 4.62781 31.1331 5.50299C31.1331 6.37817 30.7856 7.21754 30.167 7.83662C29.548 8.45523 28.7086 8.80272 27.8334 8.80272C26.9582 8.80272 26.1188 8.45523 25.4998 7.83662C24.8812 7.21754 24.5337 6.37817 24.5337 5.50299C24.5337 4.62781 24.8812 3.78843 25.4998 3.16935C26.1188 2.55074 26.9582 2.20325 27.8334 2.20325C28.7086 2.20325 29.548 2.55074 30.167 3.16935ZM16.2871 0.00125255C17.009 0.00144106 17.7238 0.143826 18.3906 0.420277C19.0575 0.696727 19.6633 1.10183 20.1736 1.61245C22.3219 3.75955 22.3219 7.24296 20.1736 9.39006C19.1416 10.4212 17.7425 11.0004 16.2836 11.0004C14.8248 11.0004 13.4256 10.4212 12.3937 9.39006C10.246 7.24238 10.246 3.75955 12.3937 1.61187C12.904 1.10135 13.5099 0.69636 14.1767 0.42001C14.8436 0.143659 15.5583 0.00136522 16.2802 0.00125255H16.2871ZM18.6173 3.1682C19.2361 3.7873 19.5837 4.6268 19.5837 5.50212C19.5837 6.37744 19.2361 7.21694 18.6173 7.83604C17.9982 8.45465 17.1588 8.80214 16.2836 8.80214C15.4085 8.80214 14.5691 8.45465 13.95 7.83604C13.3314 7.21696 12.9839 6.37759 12.9839 5.50241C12.9839 4.62723 13.3314 3.78786 13.95 3.16878C14.5691 2.55017 15.4085 2.20267 16.2836 2.20267C17.1588 2.20267 17.9982 2.55017 18.6173 3.16878V3.1682Z" fill="#4C4C4D"/>
</svg>
