<svg width="71" height="22" viewBox="0 0 71 22" fill="none" xmlns="http://www.w3.org/2000/svg">
<path d="M11.0383 0.539368C5.23931 0.539368 0.538086 5.24046 0.538086 11.0394C0.538086 16.8387 5.23931 21.5394 11.0383 21.5394C16.8379 21.5394 21.5386 16.8387 21.5386 11.0394C21.5386 5.24084 16.8379 0.539869 11.0382 0.539869L11.0383 0.539368ZM15.8536 15.6835C15.6655 15.9919 15.2618 16.0897 14.9533 15.9004C12.488 14.3945 9.38444 14.0535 5.72944 14.8885C5.37723 14.9688 5.02615 14.7481 4.9459 14.3958C4.86528 14.0434 5.08508 13.6923 5.43817 13.6121C9.43798 12.6983 12.8689 13.0917 15.6367 14.7832C15.9451 14.9725 16.0429 15.375 15.8536 15.6835ZM17.1388 12.8244C16.9018 13.2096 16.3978 13.3312 16.0128 13.0943C13.1904 11.3594 8.88804 10.857 5.54964 11.8704C5.11668 12.0011 4.6594 11.7571 4.52799 11.3249C4.39759 10.892 4.64172 10.4356 5.07392 10.3039C8.88729 9.14686 13.628 9.70733 16.8692 11.6991C17.2542 11.9361 17.3758 12.4401 17.1388 12.8245V12.8244ZM17.2491 9.84726C13.865 7.8372 8.28155 7.65238 5.05048 8.63303C4.53163 8.79039 3.98294 8.49748 3.82571 7.97864C3.66847 7.45954 3.96112 6.91123 4.48035 6.75349C8.18939 5.62753 14.3552 5.84507 18.2515 8.15806C18.7192 8.43504 18.8721 9.03777 18.595 9.50383C18.3192 9.97052 17.7148 10.1244 17.2497 9.84726H17.2491ZM29.1056 10.2324C27.2926 9.80012 26.9703 9.49668 26.9703 8.8591C26.9703 8.25674 27.5371 7.85137 28.3809 7.85137C29.1984 7.85137 30.0084 8.15919 30.8585 8.79289C30.8836 8.81208 30.9162 8.81973 30.9476 8.81471C30.9802 8.80995 31.0077 8.79252 31.0266 8.76631L31.9118 7.51847C31.9481 7.46706 31.9381 7.39622 31.8892 7.35697C30.8773 6.54535 29.7388 6.15076 28.4072 6.15076C26.45 6.15076 25.082 7.3255 25.082 9.0063C25.082 10.8087 26.2619 11.4469 28.3007 11.9396C30.0348 12.3392 30.3282 12.674 30.3282 13.2723C30.3282 13.9356 29.7363 14.3481 28.7834 14.3481C27.7251 14.3481 26.8612 13.9908 25.8958 13.1557C25.8719 13.1344 25.8393 13.1256 25.8092 13.1269C25.7766 13.1294 25.7478 13.1444 25.7277 13.1682L24.7347 14.3494C24.6933 14.3995 24.6983 14.4722 24.746 14.5149C25.8694 15.518 27.2512 16.0471 28.7433 16.0471C30.8523 16.0471 32.2152 14.8948 32.2152 13.1106C32.219 11.605 31.3175 10.7712 29.1094 10.2341L29.1056 10.2324ZM36.9874 8.44445C36.0733 8.44445 35.3235 8.80455 34.7041 9.54245V8.71189C34.7041 8.64632 34.6515 8.5929 34.5863 8.5929H32.9625C32.8973 8.5929 32.8447 8.64632 32.8447 8.71189V17.9404C32.8447 18.0056 32.8973 18.0595 32.9625 18.0595H34.5863C34.6515 18.0595 34.7041 18.0056 34.7041 17.9404V15.0277C35.3235 15.7211 36.0733 16.0609 36.9874 16.0609C38.6864 16.0609 40.4067 14.7531 40.4067 12.253C40.4092 9.75247 38.6889 8.44432 36.9887 8.44432L36.9874 8.44445ZM38.5184 12.253C38.5184 13.5256 37.7347 14.4146 36.6113 14.4146C35.5016 14.4146 34.664 13.4855 34.664 12.253C34.664 11.0205 35.5016 10.0916 36.6113 10.0916C37.7159 10.0915 38.5184 11.0003 38.5184 12.2529V12.253ZM44.814 8.44445C42.626 8.44445 40.912 10.1291 40.912 12.2802C40.912 14.4083 42.6147 16.0747 44.7877 16.0747C46.9832 16.0747 48.7022 14.3958 48.7022 12.253C48.7022 10.1176 46.9945 8.4447 44.814 8.4447V8.44445ZM44.814 14.4271C43.6504 14.4271 42.7727 13.4917 42.7727 12.2524C42.7727 11.0075 43.6203 10.1041 44.7877 10.1041C45.9588 10.1041 46.8415 11.0391 46.8415 12.2796C46.8415 13.5243 45.9889 14.4271 44.814 14.4271ZM53.3741 8.5929H51.5873V6.76653C51.5873 6.70108 51.5347 6.64767 51.4695 6.64767H49.8457C49.7805 6.64767 49.7266 6.70108 49.7266 6.76653V8.5929H48.9467C48.8815 8.5929 48.8289 8.64632 48.8289 8.71189V10.1071C48.8289 10.1725 48.8815 10.2261 48.9467 10.2261H49.7266V13.8365C49.7266 15.2948 50.4526 16.0346 51.8858 16.0346C52.4676 16.0346 52.9503 15.9142 53.4054 15.6559C53.4431 15.6358 53.4656 15.5957 53.4656 15.5531V14.224C53.4656 14.1839 53.4443 14.145 53.4092 14.1237C53.3741 14.1011 53.3302 14.0998 53.2938 14.1187C52.9816 14.2754 52.6795 14.3481 52.3409 14.3481C51.8206 14.3481 51.5873 14.1111 51.5873 13.582V10.2267H53.3741C53.4393 10.2267 53.492 10.1733 53.492 10.1077V8.71264C53.4945 8.64707 53.4418 8.59365 53.3754 8.59365L53.3741 8.5929ZM59.5983 8.60005V8.37573C59.5983 7.71583 59.8515 7.42155 60.4183 7.42155C60.7568 7.42155 61.0289 7.48875 61.3336 7.59032C61.3712 7.6021 61.4101 7.59621 61.4402 7.57377C61.4715 7.55132 61.4891 7.51534 61.4891 7.47722V6.10926C61.4891 6.05697 61.4565 6.01071 61.4051 5.99528C61.0841 5.89961 60.6728 5.80144 60.0559 5.80144C58.5576 5.80144 57.7639 6.64578 57.7639 8.24232V8.58588H56.984C56.9188 8.58588 56.8648 8.63929 56.8648 8.70475V10.1071C56.8648 10.1725 56.9188 10.2261 56.984 10.2261H57.7639V15.7938C57.7639 15.8603 57.8178 15.9129 57.883 15.9129H59.5055C59.5719 15.9129 59.6246 15.8603 59.6246 15.7938V10.2264H61.1405L63.4627 15.7938C63.1993 16.3781 62.9398 16.4947 62.5862 16.4947C62.3003 16.4947 61.9981 16.4095 61.6909 16.2402C61.6621 16.2251 61.627 16.2226 61.5969 16.2314C61.5656 16.2427 61.5392 16.2653 61.5267 16.2954L60.9762 17.5028C60.9499 17.5605 60.9725 17.627 61.0277 17.657C61.6019 17.968 62.1198 18.1009 62.7605 18.1009C63.9592 18.1009 64.6225 17.5417 65.2055 16.0396L68.0217 8.76255C68.0367 8.72594 68.0317 8.68456 68.0091 8.65208C67.9878 8.61986 67.9515 8.60042 67.9126 8.60042H66.2224C66.171 8.60042 66.1259 8.63265 66.1096 8.68017L64.378 13.6246L62.4821 8.67691C62.4646 8.63089 62.4207 8.60042 62.3718 8.60042H59.5983V8.60005ZM55.9897 8.5929H54.3659C54.3007 8.5929 54.2468 8.64632 54.2468 8.71189V15.7938C54.2468 15.8603 54.3007 15.9129 54.3659 15.9129H55.9897C56.0549 15.9129 56.1088 15.8603 56.1088 15.7938V8.71239C56.1088 8.64682 56.0561 8.5934 55.9897 8.5934V8.5929ZM55.1872 5.3681C54.5439 5.3681 54.0223 5.8887 54.0223 6.53181C54.0223 7.17529 54.5439 7.69652 55.1872 7.69652C55.8304 7.69652 56.3508 7.17529 56.3508 6.53181C56.3508 5.88883 55.8292 5.3681 55.1872 5.3681ZM69.4085 10.87C68.7665 10.87 68.2662 10.3541 68.2662 9.72752C68.2662 9.10097 68.7728 8.57911 69.4147 8.57911C70.0567 8.57911 70.557 9.09495 70.557 9.721C70.557 10.3476 70.0504 10.87 69.4085 10.87ZM69.4147 8.69271C68.8292 8.69271 68.3866 9.15789 68.3866 9.72752C68.3866 10.2969 68.8267 10.7558 69.4085 10.7558C69.994 10.7558 70.4366 10.291 70.4366 9.721C70.4366 9.15162 69.9965 8.69271 69.4147 8.69271ZM69.668 9.83848L69.9915 10.2909H69.7182L69.4273 9.87585H69.1777V10.2909H68.9495V9.09169H69.4837C69.7633 9.09169 69.9464 9.23425 69.9464 9.47424C69.9476 9.67084 69.8335 9.79096 69.6693 9.83848H69.668ZM69.4749 9.29745H69.1777V9.67674H69.4749C69.6229 9.67674 69.7119 9.60414 69.7119 9.4869C69.7119 9.36352 69.6229 9.29745 69.4749 9.29745Z" fill="#4C4C4D"/>
</svg>
